<svg width="37" height="37" viewBox="0 0 37 37" fill="none" xmlns="http://www.w3.org/2000/svg">
<path d="M36.8195 10.9207C36.7988 9.36717 36.508 7.82907 35.96 6.37521C35.4849 5.14889 34.7591 4.03517 33.8292 3.10521C32.8992 2.17525 31.7855 1.4495 30.5592 0.974332C29.124 0.435592 27.6078 0.144286 26.0752 0.112818C24.1019 0.0246148 23.4763 0 18.4672 0C13.4581 0 12.8161 1.37545e-07 10.8571 0.112818C9.3252 0.144517 7.80973 0.43582 6.37521 0.974332C5.14869 1.44917 4.0348 2.1748 3.1048 3.1048C2.1748 4.0348 1.44917 5.1487 0.974332 6.37521C0.434513 7.80929 0.143838 9.3251 0.114869 10.8571C0.0266659 12.8325 0 13.4581 0 18.4672C0 23.4763 -1.52828e-08 24.1163 0.114869 26.0772C0.145637 27.6115 0.43486 29.1254 0.974332 30.5633C1.44997 31.7894 2.17614 32.9028 3.10645 33.8325C4.03676 34.7621 5.15076 35.4874 6.37726 35.9621C7.80785 36.5225 9.32358 36.8346 10.8592 36.8851C12.8345 36.9733 13.4601 37 18.4692 37C23.4783 37 24.1204 37 26.0793 36.8851C27.6119 36.855 29.1281 36.5643 30.5633 36.0257C31.7893 35.55 32.9027 34.824 33.8326 33.8941C34.7625 32.9642 35.4884 31.8508 35.9641 30.6248C36.5036 29.1889 36.7928 27.6751 36.8236 26.1388C36.9118 24.1655 36.9385 23.5399 36.9385 18.5287C36.9344 13.5196 36.9344 12.8837 36.8195 10.9207ZM18.4549 27.9397C13.216 27.9397 8.97206 23.6958 8.97206 18.4569C8.97206 13.2181 13.216 8.97411 18.4549 8.97411C20.9699 8.97411 23.3819 9.97319 25.1602 11.7516C26.9386 13.5299 27.9377 15.9419 27.9377 18.4569C27.9377 20.9719 26.9386 23.3839 25.1602 25.1623C23.3819 26.9407 20.9699 27.9397 18.4549 27.9397ZM28.3151 10.8346C28.0247 10.8348 27.737 10.7778 27.4686 10.6668C27.2002 10.5558 26.9563 10.3929 26.7509 10.1875C26.5456 9.98214 26.3827 9.73827 26.2717 9.46987C26.1606 9.20147 26.1036 8.91381 26.1039 8.62335C26.1039 8.33311 26.1611 8.0457 26.2721 7.77755C26.3832 7.50939 26.546 7.26574 26.7512 7.06051C26.9565 6.85527 27.2001 6.69247 27.4683 6.5814C27.7364 6.47032 28.0238 6.41316 28.3141 6.41316C28.6043 6.41316 28.8917 6.47032 29.1599 6.5814C29.428 6.69247 29.6717 6.85527 29.8769 7.06051C30.0822 7.26574 30.245 7.50939 30.356 7.77755C30.4671 8.0457 30.5243 8.33311 30.5243 8.62335C30.5243 9.84588 29.5356 10.8346 28.3151 10.8346Z" fill="#FFFEF6"/>
<path d="M18.4549 24.617C21.8569 24.617 24.6147 21.8592 24.6147 18.4572C24.6147 15.0552 21.8569 12.2974 18.4549 12.2974C15.0529 12.2974 12.295 15.0552 12.295 18.4572C12.295 21.8592 15.0529 24.617 18.4549 24.617Z" fill="#FFFEF6"/>
</svg>
