<svg width="76" height="76" viewBox="0 0 76 76" fill="none" xmlns="http://www.w3.org/2000/svg">
<g filter="url(#filter0_d_37_152)">
<circle cx="36" cy="36" r="28" fill="#15CF0B"/>
<path fill-rule="evenodd" clip-rule="evenodd" d="M50.1719 21.1044C48.3268 19.1636 46.1316 17.6248 43.7134 16.5769C41.2952 15.5291 38.7021 14.9931 36.0843 15.0001C25.107 15.0001 16.1708 24.3362 16.1664 35.8122C16.1664 39.4799 17.0826 43.0595 18.8242 46.2172L16 57L26.5579 54.1043C29.4784 55.7657 32.7503 56.6368 36.0754 56.6383H36.0843C47.0593 56.6383 55.9955 47.3022 55.9999 35.8262C56.0075 33.0916 55.4963 30.3826 54.4959 27.8557C53.4956 25.3288 52.0259 23.0341 50.1719 21.1044ZM36.0843 53.126H36.0776C33.1126 53.1263 30.2022 52.2927 27.6517 50.7125L27.0482 50.337L20.7831 52.0549L22.4537 45.6724L22.061 45.0186C20.4033 42.2607 19.5257 39.0691 19.5297 35.8122C19.5341 26.2744 26.9595 18.5147 36.0909 18.5147C38.2656 18.5097 40.4197 18.9554 42.4285 19.8261C44.4372 20.6969 46.2608 21.9753 47.7936 23.5874C49.3346 25.1918 50.5561 27.0995 51.3874 29.2002C52.2186 31.3009 52.6432 33.5529 52.6366 35.8262C52.6322 45.364 45.2068 53.126 36.0843 53.126ZM45.1647 40.1685C44.6655 39.9065 42.2207 38.65 41.7637 38.4761C41.3089 38.3022 40.9783 38.2164 40.6455 38.7357C40.3128 39.2551 39.3588 40.4258 39.0682 40.7736C38.7775 41.1214 38.4869 41.1631 37.99 40.9034C37.493 40.6438 35.889 40.0943 33.9878 38.3231C32.508 36.9436 31.5097 35.2419 31.219 34.7203C30.9284 34.1986 31.188 33.9181 31.4387 33.6585C31.6628 33.4266 31.9356 33.051 32.1841 32.7473C32.4326 32.4436 32.5147 32.228 32.6811 31.8803C32.8474 31.5325 32.7654 31.2288 32.6389 30.9691C32.5147 30.7072 31.5185 28.1477 31.1037 27.1067C30.7021 26.0982 30.2917 26.2327 29.9856 26.2188C29.6685 26.2052 29.3511 26.199 29.0338 26.2002C28.7815 26.2069 28.5332 26.2681 28.3045 26.3798C28.0758 26.4915 27.8717 26.6513 27.7049 26.8494C27.2479 27.371 25.9634 28.6276 25.9634 31.1871C25.9634 33.7466 27.7471 36.2203 27.9955 36.568C28.244 36.9158 31.5052 42.1669 36.4969 44.4204C37.686 44.956 38.6134 45.2759 39.3344 45.517C40.5257 45.9135 41.6106 45.8555 42.4692 45.7234C43.4253 45.575 45.4131 44.4668 45.828 43.252C46.2429 42.0371 46.2429 40.9962 46.1186 40.7782C45.9944 40.5603 45.6594 40.4282 45.1647 40.1685Z" fill="#FFFEF6"/>
</g>
<defs>
<filter id="filter0_d_37_152" x="0" y="0" width="76" height="76" filterUnits="userSpaceOnUse" color-interpolation-filters="sRGB">
<feFlood flood-opacity="0" result="BackgroundImageFix"/>
<feColorMatrix in="SourceAlpha" type="matrix" values="0 0 0 0 0 0 0 0 0 0 0 0 0 0 0 0 0 0 127 0" result="hardAlpha"/>
<feOffset dx="2" dy="2"/>
<feGaussianBlur stdDeviation="5"/>
<feComposite in2="hardAlpha" operator="out"/>
<feColorMatrix type="matrix" values="0 0 0 0 0 0 0 0 0 0 0 0 0 0 0 0 0 0 0.2 0"/>
<feBlend mode="normal" in2="BackgroundImageFix" result="effect1_dropShadow_37_152"/>
<feBlend mode="normal" in="SourceGraphic" in2="effect1_dropShadow_37_152" result="shape"/>
</filter>
</defs>
</svg>
